<svg width="500" height="250" viewBox="0 0 500 250" version="1.1" xmlns="http://www.w3.org/2000/svg" xmlns:xlink="http://www.w3.org/1999/xlink">
<title>Colour 3</title>
<desc>Created using Figma</desc>
<g id="Canvas" transform="translate(-1284 -3032)">
<clipPath id="clip-0" clip-rule="evenodd">
<path d="M 1284 3032L 1784 3032L 1784 3282L 1284 3282L 1284 3032Z" fill="#FFFFFF"/>
</clipPath>
<g id="Colour 3" clip-path="url(#clip-0)">
<path d="M 1284 3032L 1784 3032L 1784 3282L 1284 3282L 1284 3032Z" fill="#F7FFF7"/>
<g id="Colour 1">
<g id="Vector">
<use xlink:href="#path0_fill" transform="translate(1498 3107)" fill="#FF6B6B"/>
<use xlink:href="#path1_stroke" transform="translate(1498 3107)" fill="#FF6B6B"/>
</g>
<g id="Vector">
<use xlink:href="#path2_fill" transform="translate(1499 3203.5)" fill="#FF6B6B"/>
<use xlink:href="#path3_stroke" transform="translate(1499 3203.5)" fill="#FF6B6B"/>
</g>
</g>
<g id="Group">
<g id="&#60; Str0be &#62;">
<use xlink:href="#path4_fill" transform="translate(1284 3032)" fill="#FF6B6B"/>
</g>
</g>
</g>
</g>
<defs>
<path id="path0_fill" d="M 0 36.5C 0 16.355 16.355 0 36.5 0C 56.645 0 73 16.355 73 36.5C 73 56.645 56.645 73 36.5 73C 16.355 73 0 56.645 0 36.5Z"/>
<path id="path1_stroke" d="M 2 36.5C 2 17.4596 17.4596 2 36.5 2L 36.5 -2C 15.2504 -2 -2 15.2504 -2 36.5L 2 36.5ZM 36.5 2C 55.5404 2 71 17.4596 71 36.5L 75 36.5C 75 15.2504 57.7496 -2 36.5 -2L 36.5 2ZM 71 36.5C 71 55.5404 55.5404 71 36.5 71L 36.5 75C 57.7496 75 75 57.7496 75 36.5L 71 36.5ZM 36.5 71C 17.4596 71 2 55.5404 2 36.5L -2 36.5C -2 57.7496 15.2504 75 36.5 75L 36.5 71Z"/>
<path id="path2_fill" d="M 73 0L 0 0L 0 11L 73 11L 73 0Z"/>
<path id="path3_stroke" d="M 0 0L 0 -2L -2 -2L -2 0L 0 0ZM 73 0L 75 0L 75 -2L 73 -2L 73 0ZM 73 11L 73 13L 75 13L 75 11L 73 11ZM 0 11L -2 11L -2 13L 0 13L 0 11ZM 0 2L 73 2L 73 -2L 0 -2L 0 2ZM 71 0L 71 11L 75 11L 75 0L 71 0ZM 73 9L 0 9L 0 13L 73 13L 73 9ZM 2 11L 2 0L -2 0L -2 11L 2 11Z"/>
<path id="path4_fill" d="M 76.1535 90.7L 48.0535 107.2L 76.1535 123.8L 76.1535 127.1L 44.8535 108.6L 44.8535 105.7L 76.1535 87.4L 76.1535 90.7ZM 123.746 149.4C 115.413 149.4 108.946 145.967 104.346 139.1L 104.346 133.7C 106.146 137.7 108.746 140.833 112.146 143.1C 115.613 145.367 119.746 146.5 124.546 146.5C 127.88 146.5 130.946 145.767 133.746 144.3C 136.613 142.833 138.88 140.767 140.546 138.1C 142.213 135.433 143.046 132.367 143.046 128.9C 143.046 125.767 142.513 123.067 141.446 120.8C 140.38 118.533 138.613 116.367 136.146 114.3C 133.68 112.167 130.113 109.667 125.446 106.8L 122.246 104.8C 119.313 103 116.946 101.4 115.146 100C 113.346 98.6 111.78 96.9667 110.446 95.1C 108.713 92.5 107.846 89.5 107.846 86.1C 107.846 81.5667 109.313 78.0333 112.246 75.5C 115.18 72.9667 118.913 71.7 123.446 71.7C 129.58 71.7 134.446 73.9667 138.046 78.5L 138.046 83.6C 136.513 80.8 134.413 78.6 131.746 77C 129.08 75.4 126.146 74.6 122.946 74.6C 119.613 74.6 116.813 75.6333 114.546 77.7C 112.28 79.7667 111.146 82.5333 111.146 86C 111.146 89.4 112.18 92.3333 114.246 94.8C 116.38 97.2 119.946 99.8333 124.946 102.7C 131.08 106.3 135.846 109.567 139.246 112.5C 141.646 114.7 143.38 117.133 144.446 119.8C 145.58 122.467 146.146 125.433 146.146 128.7C 146.146 132.833 145.18 136.467 143.246 139.6C 141.313 142.733 138.646 145.167 135.246 146.9C 131.846 148.567 128.013 149.4 123.746 149.4ZM 172.742 148.6C 167.808 148.6 163.708 147.1 160.442 144.1C 157.242 141.1 155.642 136.967 155.642 131.7L 155.642 84.9L 158.842 84.9L 158.842 103L 172.642 103L 172.642 105.8L 158.842 105.8L 158.842 131.7C 158.842 136.1 160.142 139.567 162.742 142.1C 165.408 144.567 168.742 145.8 172.742 145.8L 172.742 148.6ZM 181.154 103L 184.354 103L 184.354 113.4C 185.687 110.133 187.62 107.567 190.154 105.7C 192.754 103.833 195.687 102.9 198.954 102.9C 201.02 102.9 203.12 103.333 205.254 104.2L 205.254 107.9C 203.32 106.433 201.154 105.7 198.754 105.7C 196.354 105.7 194.02 106.433 191.754 107.9C 189.554 109.367 187.754 111.333 186.354 113.8C 185.02 116.267 184.354 118.9 184.354 121.7L 184.354 148L 181.154 148L 181.154 103ZM 249.685 149.3C 242.551 149.3 236.018 147.567 230.085 144.1C 224.151 140.567 219.451 135.833 215.985 129.9C 212.585 123.9 210.885 117.4 210.885 110.4C 210.885 103.6 212.618 97.2333 216.085 91.3C 219.618 85.3667 224.351 80.6667 230.285 77.2C 236.285 73.6667 242.751 71.9 249.685 71.9C 256.685 71.9 263.151 73.6667 269.085 77.2C 275.018 80.6667 279.718 85.3667 283.185 91.3C 286.718 97.2333 288.485 103.7 288.485 110.7C 288.485 117.633 286.751 124.067 283.285 130C 279.818 135.867 275.118 140.567 269.185 144.1C 263.251 147.567 256.751 149.3 249.685 149.3ZM 249.685 146.4C 256.085 146.4 261.985 144.8 267.385 141.6C 272.851 138.333 277.185 133.967 280.385 128.5C 283.585 123.033 285.185 117.067 285.185 110.6C 285.185 104.2 283.585 98.2667 280.385 92.8C 277.185 87.2667 272.851 82.9 267.385 79.7C 261.985 76.4333 256.085 74.8 249.685 74.8C 243.285 74.8 237.351 76.4333 231.885 79.7C 226.485 82.9 222.185 87.2667 218.985 92.8C 215.785 98.2667 214.185 104.2 214.185 110.6C 214.185 117.067 215.785 123.033 218.985 128.5C 222.185 133.967 226.485 138.333 231.885 141.6C 237.351 144.8 243.285 146.4 249.685 146.4ZM 322.429 149.1C 318.363 149.1 314.429 148 310.629 145.8C 306.896 143.6 304.029 140.7 302.029 137.1L 302.029 148L 298.829 148L 298.829 73L 302.029 73L 302.029 114.4C 303.829 110.6 306.629 107.567 310.429 105.3C 314.229 103.033 318.229 101.9 322.429 101.9C 326.763 101.9 330.729 102.967 334.329 105.1C 337.996 107.233 340.896 110.1 343.029 113.7C 345.163 117.3 346.229 121.233 346.229 125.5C 346.229 129.767 345.163 133.7 343.029 137.3C 340.896 140.9 337.996 143.767 334.329 145.9C 330.729 148.033 326.763 149.1 322.429 149.1ZM 322.629 146.3C 326.296 146.3 329.696 145.367 332.829 143.5C 335.963 141.567 338.429 139.033 340.229 135.9C 342.096 132.7 343.029 129.233 343.029 125.5C 343.029 121.833 342.096 118.4 340.229 115.2C 338.363 112 335.863 109.467 332.729 107.6C 329.596 105.667 326.196 104.7 322.529 104.7C 318.863 104.7 315.429 105.667 312.229 107.6C 309.096 109.533 306.563 112.1 304.629 115.3C 302.763 118.5 301.829 121.933 301.829 125.6C 301.829 129.267 302.763 132.7 304.629 135.9C 306.563 139.033 309.129 141.567 312.329 143.5C 315.529 145.367 318.963 146.3 322.629 146.3ZM 378.151 146.4C 381.618 146.4 384.918 145.5 388.051 143.7C 391.185 141.9 393.785 139.433 395.851 136.3L 395.851 141.4C 393.385 144.133 390.685 146.133 387.751 147.4C 384.818 148.6 381.485 149.2 377.751 149.2C 373.618 149.2 369.718 148.1 366.051 145.9C 362.451 143.7 359.551 140.767 357.351 137.1C 355.218 133.433 354.151 129.533 354.151 125.4C 354.151 120.933 355.218 116.933 357.351 113.4C 359.485 109.8 362.385 107 366.051 105C 369.785 103 373.918 102 378.451 102C 385.385 102 391.285 104.733 396.151 110.2L 364.751 141.2C 366.951 143 369.085 144.333 371.151 145.2C 373.218 146 375.551 146.4 378.151 146.4ZM 357.351 125.1C 357.351 130.633 359.185 135.367 362.851 139.3L 392.151 110.2C 389.951 108.267 387.818 106.9 385.751 106.1C 383.685 105.233 381.218 104.8 378.351 104.8C 374.285 104.8 370.651 105.7 367.451 107.5C 364.318 109.233 361.851 111.633 360.051 114.7C 358.251 117.767 357.351 121.233 357.351 125.1ZM 460.626 105.7L 460.626 108.6L 429.326 127.1L 429.326 123.8L 457.426 107.2L 429.326 90.7L 429.326 87.4L 460.626 105.7Z"/>
</defs>
</svg>
